<svg width="58" height="58" viewBox="0 0 58 58" fill="none" xmlns="http://www.w3.org/2000/svg">
<g filter="url(#shadow)">
  <circle cx="29" cy="26" r="23" fill="white"/>
</g>
<path d="M21.8 22.3H25.2V36.1H21.8V22.3ZM23.5 18.4C22.4 18.4 21.5 17.5 21.5 16.4C21.5 15.3 22.4 14.4 23.5 14.4C24.6 14.4 25.5 15.3 25.5 16.4C25.5 17.5 24.6 18.4 23.5 18.4ZM36.5 36.1H33.1V28.7C33.1 27 32.4 25.9 30.9 25.9C29.1 25.9 28.3 27.2 28.3 28.7V36.1H24.9V22.3H28.2V24.1C28.8 23 30.2 21.8 32.4 21.8C35.4 21.8 37.2 23.7 37.2 26.9V36.1H36.5Z" fill="black"/>
<defs>
  <filter id="shadow" x="0" y="0" width="58" height="58" filterUnits="userSpaceOnUse">
    <feOffset dy="3"/>
    <feGaussianBlur stdDeviation="3"/>
    <feColorMatrix type="matrix" values="0 0 0 0 0 0 0 0 0 0 0 0 0 0 0 0 0 0 0.15 0"/>
    <feBlend in="SourceGraphic" mode="normal"/>
  </filter>
</defs>
</svg>

